<svg width="8" height="16" viewBox="0 0 8 16" fill="none" xmlns="http://www.w3.org/2000/svg">
<path d="M7.21644 5.09091V7.36364H0.483487V5.09091H7.21644ZM2.02468 16V4.30256C2.02468 3.51184 2.17856 2.85606 2.48633 2.33523C2.79883 1.81439 3.22496 1.42377 3.76474 1.16335C4.30451 0.902935 4.91767 0.772726 5.60423 0.772726C6.06824 0.772726 6.49201 0.808238 6.87553 0.879261C7.26379 0.950284 7.55262 1.0142 7.74201 1.07102L7.20224 3.34375C7.08387 3.30587 6.93709 3.27036 6.7619 3.23722C6.59144 3.20407 6.41625 3.1875 6.23633 3.1875C5.79125 3.1875 5.48112 3.29167 5.30593 3.5C5.13074 3.7036 5.04315 3.99006 5.04315 4.35938V16H2.02468Z" fill="black"/>
</svg>
