<svg height="50" viewBox="0 0 512 512" width="50" xmlns="http://www.w3.org/2000/svg"><g id="_30_Add" data-name="30 Add"><path d="m256 17c-122.11 0-221.46 99.34-221.46 221.46s99.35 221.46 221.46 221.46a219.1 219.1 0 0 0 96.79-22.21l-13.59-67.42a28.87 28.87 0 0 1 46.52-28.09l42.94 34.95a221.54 221.54 0 0 0 48.79-138.69c0-122.12-99.34-221.46-221.45-221.46zm154.28 221.46a41.78 41.78 0 0 1 -41.77 41.78h-70.73v70.76a41.78 41.78 0 0 1 -83.56 0v-70.76h-70.73a41.78 41.78 0 0 1 -41.77-41.78 41.78 41.78 0 0 1 41.77-41.78h70.73v-70.68a41.78 41.78 0 0 1 83.56 0v70.73h70.73a41.78 41.78 0 0 1 41.77 41.78z"/><path d="m471.75 427.69-93.61-76.18a16.38 16.38 0 0 0 -10.47-3.86 17.37 17.37 0 0 0 -8.89 2.51 16.52 16.52 0 0 0 -7.78 17.76l23.8 118.32a10.92 10.92 0 0 0 20.38 2.89l9-17.26a46.1 46.1 0 0 1 41-24.87h.17l19.47.07a10.91 10.91 0 0 0 6.92-19.38z"/></g></svg>